<svg width="350" height="350" viewBox="0 0 350 350" fill="none" xmlns="http://www.w3.org/2000/svg">
<path d="M85.2109 49.0063C83.7812 49.1411 82.4537 49.8058 81.4894 50.8699C80.5251 51.9339 79.9939 53.3202 80.0001 54.7562V296.25C80.0002 297.775 80.606 299.237 81.6843 300.316C82.7626 301.394 84.225 302 85.7499 302H263.995C265.52 302 266.983 301.394 268.061 300.316C269.139 299.237 269.745 297.775 269.745 296.25V103.63C269.751 102.862 269.603 102.101 269.31 101.391C269.017 100.681 268.584 100.037 268.038 99.4972L219.165 50.6235C218.081 49.5753 216.629 48.9946 215.122 49.0063H85.7499C85.5703 48.9979 85.3904 48.9979 85.2109 49.0063ZM91.4998 60.506H206.497V106.505C206.497 108.03 207.103 109.492 208.181 110.57C209.259 111.649 210.722 112.255 212.247 112.255H258.246V290.5H91.4998V60.506ZM217.997 65.7168L253.035 100.755H217.997V65.7168ZM113.96 129.504C113.205 129.54 112.464 129.723 111.78 130.045C111.096 130.366 110.482 130.82 109.973 131.379C109.464 131.938 109.07 132.591 108.813 133.303C108.557 134.014 108.443 134.769 108.479 135.524C108.514 136.279 108.698 137.02 109.02 137.704C109.341 138.388 109.795 139.002 110.354 139.511C110.913 140.02 111.567 140.414 112.278 140.67C112.989 140.926 113.744 141.04 114.499 141.004H177.748C178.51 141.015 179.266 140.874 179.973 140.59C180.68 140.306 181.324 139.884 181.866 139.349C182.409 138.814 182.84 138.176 183.134 137.474C183.428 136.771 183.579 136.016 183.579 135.254C183.579 134.492 183.428 133.738 183.134 133.035C182.84 132.332 182.409 131.694 181.866 131.159C181.324 130.624 180.68 130.203 179.973 129.918C179.266 129.634 178.51 129.494 177.748 129.504H114.499C114.32 129.496 114.14 129.496 113.96 129.504ZM113.96 161.129C113.205 161.164 112.464 161.347 111.78 161.669C111.096 161.991 110.482 162.444 109.973 163.003C109.464 163.562 109.07 164.216 108.813 164.927C108.557 165.638 108.443 166.393 108.479 167.148C108.514 167.903 108.698 168.644 109.02 169.328C109.341 170.012 109.795 170.626 110.354 171.135C110.913 171.644 111.567 172.038 112.278 172.294C112.989 172.55 113.744 172.664 114.499 172.628H235.246C236.008 172.639 236.765 172.498 237.472 172.214C238.179 171.93 238.822 171.508 239.365 170.973C239.907 170.438 240.338 169.801 240.632 169.098C240.926 168.395 241.078 167.64 241.078 166.878C241.078 166.116 240.926 165.362 240.632 164.659C240.338 163.956 239.907 163.319 239.365 162.784C238.822 162.249 238.179 161.827 237.472 161.543C236.765 161.259 236.008 161.118 235.246 161.129H114.499C114.32 161.12 114.14 161.12 113.96 161.129ZM113.96 192.753C113.205 192.788 112.464 192.972 111.78 193.293C111.096 193.615 110.482 194.068 109.973 194.627C109.464 195.186 109.07 195.84 108.813 196.551C108.557 197.262 108.443 198.017 108.479 198.772C108.514 199.527 108.698 200.268 109.02 200.952C109.341 201.636 109.795 202.25 110.354 202.759C110.913 203.268 111.567 203.662 112.278 203.918C112.989 204.174 113.744 204.288 114.499 204.252H235.246C236.008 204.263 236.765 204.122 237.472 203.838C238.179 203.554 238.822 203.132 239.365 202.597C239.907 202.062 240.338 201.425 240.632 200.722C240.926 200.019 241.078 199.265 241.078 198.503C241.078 197.741 240.926 196.986 240.632 196.283C240.338 195.58 239.907 194.943 239.365 194.408C238.822 193.873 238.179 193.451 237.472 193.167C236.765 192.883 236.008 192.742 235.246 192.753H114.499C114.32 192.744 114.14 192.744 113.96 192.753ZM113.96 224.377C113.205 224.412 112.464 224.596 111.78 224.917C111.096 225.239 110.482 225.692 109.973 226.251C109.464 226.81 109.07 227.464 108.813 228.175C108.557 228.886 108.443 229.641 108.479 230.396C108.514 231.152 108.698 231.892 109.02 232.576C109.341 233.261 109.795 233.875 110.354 234.384C110.913 234.892 111.567 235.286 112.278 235.542C112.989 235.799 113.744 235.912 114.499 235.877H235.246C236.008 235.887 236.765 235.747 237.472 235.463C238.179 235.178 238.822 234.757 239.365 234.222C239.907 233.687 240.338 233.049 240.632 232.346C240.926 231.643 241.078 230.889 241.078 230.127C241.078 229.365 240.926 228.61 240.632 227.907C240.338 227.204 239.907 226.567 239.365 226.032C238.822 225.497 238.179 225.075 237.472 224.791C236.765 224.507 236.008 224.366 235.246 224.377H114.499C114.32 224.369 114.14 224.369 113.96 224.377ZM113.96 256.001C113.205 256.036 112.464 256.22 111.78 256.542C111.096 256.863 110.482 257.316 109.973 257.875C109.464 258.434 109.07 259.088 108.813 259.799C108.557 260.511 108.443 261.265 108.479 262.021C108.514 262.776 108.698 263.517 109.02 264.201C109.341 264.885 109.795 265.499 110.354 266.008C110.913 266.517 111.567 266.91 112.278 267.167C112.989 267.423 113.744 267.536 114.499 267.501H177.748C178.51 267.512 179.266 267.371 179.973 267.087C180.68 266.803 181.324 266.381 181.866 265.846C182.409 265.311 182.84 264.673 183.134 263.97C183.428 263.267 183.579 262.513 183.579 261.751C183.579 260.989 183.428 260.235 183.134 259.532C182.84 258.829 182.409 258.191 181.866 257.656C181.324 257.121 180.68 256.699 179.973 256.415C179.266 256.131 178.51 255.99 177.748 256.001H114.499C114.32 255.993 114.14 255.993 113.96 256.001Z" fill="black"/>
</svg>
