<svg width="350" height="350" viewBox="0 0 350 350" fill="none" xmlns="http://www.w3.org/2000/svg">
<path d="M321.469 161.684L309.429 131.5C308.836 130.038 307.749 128.829 306.357 128.086C304.964 127.343 303.355 127.111 301.81 127.433L288.511 130.332L259.428 103.525L248.826 88.314C248.19 87.4646 247.364 86.777 246.413 86.3073C245.462 85.8375 244.414 85.5988 243.353 85.6106L182.091 85.1499C181.123 85.1474 180.166 85.3533 179.285 85.7538C178.404 86.1542 177.62 86.7397 176.985 87.4704L148.224 120.953L133.243 114.404C132.364 113.992 131.405 113.775 130.434 113.767C129.463 113.76 128.501 113.963 127.616 114.362L78.3676 138.558C76.942 139.262 75.811 140.447 75.1747 141.904L65.3976 164.881L34.7784 167.582C33.0366 167.749 31.4278 168.586 30.2921 169.917C29.1563 171.248 28.5827 172.968 28.6926 174.715L31.7354 218.209C31.8043 219.144 32.0675 220.054 32.5081 220.882C32.9487 221.709 33.557 222.435 34.2941 223.014L86.3908 263.643C87.5557 264.545 88.9842 265.042 90.4578 265.055L91.4351 265.062L194.935 250.373L242.233 265.859C243.744 266.35 245.38 266.29 246.851 265.692L310.606 239.414C311.722 238.952 312.693 238.197 313.418 237.23C314.142 236.264 314.594 235.12 314.725 233.919L321.984 164.856C322.07 163.773 321.894 162.685 321.469 161.684ZM301.824 228.564L244.053 252.393L197.965 237.32L174.063 225.144L177.571 206.736C177.689 205.097 177.203 203.471 176.205 202.164C175.208 200.858 173.767 199.961 172.155 199.642C170.542 199.324 168.869 199.605 167.449 200.434C166.03 201.264 164.962 202.583 164.448 204.144L159.824 227.53C159.546 228.96 159.738 230.441 160.372 231.751C161.006 233.062 162.048 234.133 163.341 234.802L173.412 239.899L92.448 251.354L44.8733 214.365L42.5004 180.379L70.5563 177.961C71.7593 177.848 72.9098 177.414 73.8875 176.704C74.8651 175.994 75.6339 175.034 76.1133 173.925L86.4065 149.537L130.682 127.865L139.045 131.567L133.096 138.397C132.247 139.757 131.911 141.376 132.148 142.963C132.385 144.549 133.18 145.999 134.39 147.051C135.601 148.104 137.146 148.69 138.75 148.705C140.354 148.72 141.911 148.163 143.14 147.133L185.091 98.5173L239.883 98.9294L248.918 111.904C249.19 112.298 249.504 112.662 249.853 112.99L272.544 133.919L267.177 135.092C265.698 135.424 264.374 136.245 263.419 137.422L245.425 159.596C244.552 160.99 244.219 162.655 244.488 164.277C244.757 165.9 245.611 167.368 246.887 168.405C248.164 169.442 249.775 169.976 251.418 169.907C253.062 169.839 254.623 169.172 255.808 168.032L272.339 147.7L299.14 141.87L308.467 165.26L301.824 228.564Z" fill="black"/>
</svg>
