<svg width="350" height="350" viewBox="0 0 350 350" fill="none" xmlns="http://www.w3.org/2000/svg">
<path d="M83.7873 260.132C83.7568 262.807 84.5241 265.432 85.9923 267.673C87.4604 269.914 89.5634 271.672 92.0354 272.724C94.5073 273.776 97.2372 274.075 99.8797 273.583C102.522 273.092 104.959 271.831 106.881 269.961C108.804 268.091 110.126 265.696 110.68 263.078C111.234 260.46 110.996 257.737 109.996 255.254C108.995 252.771 107.277 250.639 105.059 249.127C102.84 247.615 100.222 246.792 97.5334 246.761C93.9298 246.724 90.4588 248.111 87.8818 250.618C85.3049 253.125 83.8323 256.546 83.7873 260.132ZM101.91 260.339C101.9 261.231 101.624 262.099 101.118 262.835C100.612 263.571 99.8973 264.141 99.0656 264.472C98.2338 264.804 97.3218 264.883 96.4449 264.699C95.5681 264.515 94.7657 264.077 94.1392 263.439C93.5128 262.801 93.0904 261.993 92.9256 261.116C92.7608 260.24 92.8608 259.334 93.2131 258.514C93.5654 257.694 94.1542 256.997 94.9049 256.51C95.6556 256.023 96.5345 255.768 97.4306 255.779C98.6318 255.794 99.778 256.282 100.618 257.137C101.457 257.992 101.922 259.143 101.91 260.339Z" fill="black"/>
<path d="M282.622 307.491C282.636 306.296 282.172 305.143 281.332 304.288C280.492 303.433 279.345 302.945 278.143 302.931C264.327 302.774 262.508 295.07 261.216 287.303C267.027 283.031 271.198 276.912 273.037 269.958C274.876 263.005 274.273 255.635 271.328 249.069C268.382 242.502 263.271 237.134 256.841 233.853C250.412 230.572 243.049 229.575 235.972 231.028L195.545 171.066L244.127 69.9613C244.411 69.3696 244.562 68.7233 244.57 68.0674L244.827 45.5241C244.838 44.5618 244.539 43.6212 243.975 42.8399C243.41 42.0586 242.609 41.4775 241.689 41.1815C240.769 40.8856 239.778 40.8904 238.86 41.1953C237.943 41.5001 237.148 42.0889 236.591 42.8757L171.306 135.11L108.139 41.4117C107.601 40.6124 106.819 40.0056 105.909 39.68C104.999 39.3543 104.009 39.3269 103.082 39.6018C102.155 39.8766 101.341 40.4393 100.759 41.2076C100.177 41.9759 99.8567 42.9094 99.8458 43.8717L99.5889 66.415C99.5814 67.0709 99.7178 67.7205 99.9886 68.3185L146.253 170.505L104.473 229.529C97.3811 227.899 89.9418 228.743 83.4001 231.918C76.8584 235.093 71.6111 240.408 68.5363 246.973C65.4615 253.538 64.7456 260.955 66.5084 267.983C68.2713 275.011 72.4059 281.224 78.2205 285.582C84.0351 289.94 91.1769 292.179 98.4512 291.924C105.725 291.668 112.691 288.935 118.182 284.181C123.673 279.427 127.356 272.94 128.616 265.806C129.876 258.672 128.636 251.324 125.103 244.99L159.345 197.864L181.833 198.121L214.992 246.015C211.717 251.587 210.238 258.025 210.755 264.461C211.272 270.897 213.761 277.02 217.885 282.004C222.009 286.988 227.57 290.594 233.817 292.334C240.065 294.074 246.698 293.866 252.823 291.736C253.563 295.286 254.776 299.278 257.321 302.805C261.623 308.765 268.594 311.841 278.04 311.948C279.242 311.962 280.4 311.5 281.259 310.664C282.118 309.828 282.609 308.687 282.622 307.491ZM235.6 59.9376L235.52 66.9683L189.681 162.367L176.714 143.132L235.6 59.9376ZM97.1223 282.831C92.6419 282.78 88.2772 281.408 84.5801 278.888C80.883 276.369 78.0196 272.815 76.352 268.676C74.6844 264.537 74.2874 259.999 75.2113 255.636C76.1353 251.273 78.3386 247.281 81.5426 244.164C84.7467 241.048 88.8076 238.947 93.2118 238.127C97.616 237.307 102.166 237.806 106.286 239.559C110.406 241.312 113.911 244.242 116.357 247.978C118.804 251.713 120.083 256.087 120.033 260.546C119.958 266.522 117.503 272.225 113.208 276.403C108.913 280.581 103.128 282.893 97.1223 282.831ZM119.332 237.541C117.468 235.758 115.394 234.207 113.154 232.923L150.573 180.055L154.81 189.414C154.244 189.73 153.754 190.164 153.372 190.686L119.332 237.541ZM187.964 191.081C187.552 190.486 187.003 189.999 186.363 189.659C185.722 189.32 185.009 189.138 184.284 189.13L164.519 188.905L108.662 65.5224L108.742 58.4917L227.213 234.223C224.945 235.456 222.836 236.959 220.932 238.699L187.964 191.081ZM219.707 261.682C219.758 257.223 221.136 252.88 223.667 249.201C226.199 245.522 229.77 242.673 233.929 241.014C238.087 239.355 242.647 238.96 247.032 239.88C251.416 240.8 255.428 242.993 258.56 246.182C261.692 249.371 263.804 253.412 264.628 257.795C265.453 262.178 264.952 266.706 263.191 270.805C261.429 274.905 258.486 278.393 254.732 280.827C250.979 283.262 246.584 284.534 242.103 284.483C236.097 284.408 230.366 281.965 226.168 277.691C221.969 273.416 219.646 267.659 219.707 261.682Z" fill="black"/>
<path d="M255.952 262.094C255.983 259.419 255.215 256.795 253.747 254.554C252.279 252.312 250.176 250.555 247.704 249.502C245.232 248.45 242.502 248.151 239.86 248.643C237.217 249.135 234.781 250.396 232.858 252.266C230.936 254.136 229.614 256.531 229.06 259.149C228.505 261.767 228.743 264.489 229.744 266.973C230.744 269.456 232.463 271.588 234.681 273.1C236.899 274.612 239.518 275.435 242.206 275.466C245.81 275.502 249.281 274.115 251.858 271.609C254.435 269.102 255.907 265.68 255.952 262.094ZM237.83 261.888C237.84 260.996 238.115 260.128 238.622 259.392C239.128 258.656 239.842 258.086 240.674 257.754C241.506 257.423 242.418 257.344 243.295 257.528C244.171 257.712 244.974 258.15 245.6 258.788C246.227 259.426 246.649 260.234 246.814 261.111C246.979 261.987 246.879 262.893 246.526 263.713C246.174 264.533 245.585 265.23 244.835 265.717C244.084 266.204 243.205 266.458 242.309 266.448C241.108 266.433 239.962 265.945 239.122 265.09C238.282 264.235 237.817 263.083 237.83 261.888Z" fill="black"/>
<path d="M166.367 170.888C166.339 173.378 168.344 175.42 170.846 175.449C173.348 175.477 175.4 173.482 175.428 170.992C175.457 168.502 173.451 166.46 170.949 166.431C168.447 166.403 166.395 168.398 166.367 170.888Z" fill="black"/>
</svg>
